<?xml version="1.0" standalone="no"?>
<!DOCTYPE svg PUBLIC "-//W3C//DTD SVG 20010904//EN"
 "http://www.w3.org/TR/2001/REC-SVG-20010904/DTD/svg10.dtd">
<svg version="1.0" xmlns="http://www.w3.org/2000/svg"
 width="281.000000pt" height="281.000000pt" viewBox="0 0 281.000000 281.000000"
 preserveAspectRatio="xMidYMid meet">
<metadata>
Created by potrace 1.11, written by Peter Selinger 2001-2013
</metadata>
<g transform="translate(0.000000,281.000000) scale(0.100000,-0.100000)"
fill="#000000" stroke="none">
<path d="M1345 2314 c-63 -68 -10 -166 82 -149 43 8 76 56 68 100 -12 70 -103
100 -150 49z"/>
<path d="M1067 2278 c-68 -52 -44 -154 39 -165 33 -4 46 -1 69 20 63 53 24
157 -59 157 -18 0 -40 -6 -49 -12z"/>
<path d="M1648 2277 c-69 -54 -46 -153 38 -164 33 -4 46 -1 68 19 61 52 31
145 -49 154 -25 3 -46 -1 -57 -9z"/>
<path d="M809 2127 c-27 -21 -41 -57 -35 -92 8 -41 34 -64 79 -72 31 -5 40 -1
67 25 60 61 26 152 -57 152 -21 0 -45 -6 -54 -13z"/>
<path d="M1909 2133 c-27 -7 -52 -61 -45 -97 9 -46 39 -71 86 -71 54 0 90 35
90 87 0 66 -57 101 -131 81z"/>
<path d="M628 1905 c-55 -31 -63 -88 -20 -134 15 -17 34 -31 42 -32 39 -4 63
3 85 26 71 70 -20 188 -107 140z"/>
<path d="M2113 1913 c-32 -6 -63 -50 -63 -87 1 -59 57 -101 113 -85 116 33 68
196 -50 172z"/>
<path d="M509 1611 c-20 -20 -29 -39 -29 -61 0 -39 47 -90 84 -90 85 0 125 84
70 149 -35 42 -84 43 -125 2z"/>
<path d="M2179 1611 c-20 -20 -29 -39 -29 -61 0 -44 47 -90 91 -90 42 0 89 43
89 81 0 90 -90 131 -151 70z"/>
<path d="M540 1343 c-51 -20 -72 -80 -46 -131 41 -79 165 -46 166 45 0 57 -69
106 -120 86z"/>
<path d="M2204 1337 c-31 -17 -44 -34 -50 -65 -11 -55 28 -101 91 -107 19 -2
64 25 75 44 39 74 -45 167 -116 128z"/>
<path d="M609 1041 c-20 -20 -29 -39 -29 -61 0 -40 47 -90 85 -90 57 0 94 36
95 92 0 28 -7 42 -31 62 -41 35 -83 34 -120 -3z"/>
<path d="M2104 1060 c-28 -11 -54 -48 -54 -78 0 -83 92 -122 152 -65 39 37 38
84 -1 124 -30 29 -58 35 -97 19z"/>
<path d="M835 839 c-78 -22 -89 -126 -16 -163 39 -21 69 -16 102 15 69 64 5
173 -86 148z"/>
<path d="M1940 841 c-76 -18 -104 -92 -56 -148 19 -22 32 -28 66 -28 34 0 47
6 66 28 55 64 2 166 -76 148z"/>
<path d="M1058 671 c-41 -36 -43 -90 -5 -128 49 -50 146 -19 149 47 3 65 -19
95 -75 104 -31 5 -42 1 -69 -23z"/>
<path d="M1665 690 c-35 -13 -58 -48 -58 -85 0 -65 68 -109 124 -80 38 20 51
40 52 80 2 60 -64 107 -118 85z"/>
<path d="M1375 640 c-30 -12 -53 -41 -58 -78 -4 -27 0 -40 23 -65 70 -79 189
5 143 101 -19 39 -67 58 -108 42z"/>
<path d="M1365 168 c-32 -19 -44 -40 -45 -81 0 -90 123 -120 164 -39 22 44 7
96 -34 117 -34 18 -58 19 -85 3z"/>
</g>
</svg>
