<?xml version="1.0" standalone="no"?>
<!DOCTYPE svg PUBLIC "-//W3C//DTD SVG 20010904//EN"
 "http://www.w3.org/TR/2001/REC-SVG-20010904/DTD/svg10.dtd">
<svg version="1.0" xmlns="http://www.w3.org/2000/svg"
 width="333.000000pt" height="333.000000pt" viewBox="0 0 333.000000 333.000000"
 preserveAspectRatio="xMidYMid meet">
<metadata>
Created by potrace 1.11, written by Peter Selinger 2001-2013
</metadata>
<g transform="translate(0.000000,333.000000) scale(0.100000,-0.100000)"
fill="#000000" stroke="none">
<path d="M1585 3295 c-22 -11 -53 -39 -69 -63 -25 -35 -30 -52 -30 -101 1 -69
21 -109 77 -155 35 -28 46 -31 106 -31 57 0 74 4 109 28 100 66 111 208 23
293 -57 56 -141 67 -216 29z"/>
<path d="M895 3057 c-52 -17 -87 -48 -110 -98 -60 -130 27 -269 168 -269 75 0
134 36 168 103 47 91 10 205 -81 252 -38 20 -106 25 -145 12z"/>
<path d="M2300 3026 c-137 -69 -135 -274 4 -337 103 -47 223 2 259 106 31 89
-7 190 -85 230 -51 26 -129 27 -178 1z"/>
<path d="M485 2393 c-73 -38 -106 -90 -108 -167 -3 -100 68 -180 168 -191 40
-4 59 0 102 20 61 30 91 72 102 145 7 42 4 58 -14 98 -12 26 -31 55 -41 64
-53 46 -152 61 -209 31z"/>
<path d="M2704 2377 c-144 -46 -180 -240 -61 -331 87 -67 209 -48 269 41 82
121 12 274 -132 293 -26 3 -60 2 -76 -3z"/>
<path d="M628 1650 c-106 -32 -161 -166 -109 -268 46 -90 161 -126 251 -80 56
29 99 89 104 147 13 137 -114 241 -246 201z"/>
<path d="M2567 1626 c-184 -49 -183 -314 1 -361 59 -16 108 -7 157 26 119 82
99 271 -34 326 -51 22 -70 23 -124 9z"/>
<path d="M1178 1140 c-112 -60 -137 -208 -49 -298 120 -124 330 -36 322 135
-4 79 -38 131 -108 167 -43 22 -119 20 -165 -4z"/>
<path d="M1986 1145 c-61 -16 -95 -41 -124 -94 -27 -48 -31 -111 -9 -162 70
-162 309 -147 355 23 20 74 -3 146 -64 196 -49 41 -98 52 -158 37z"/>
<path d="M1590 358 c-45 -23 -86 -78 -95 -127 -8 -45 13 -117 43 -147 147
-147 376 12 287 200 -39 82 -149 116 -235 74z"/>
</g>
</svg>
