<svg xmlns="http://www.w3.org/2000/svg" width="93.633" height="26.162" viewBox="0 0 93.633 26.162"><g fill="#FFF"><path d="M58.315.382c-1.802 0-1.802 1.682-1.802 2.315v20.285c0 .633 0 2.314 1.802 2.314 1.803 0 1.803-1.68 1.803-2.314V2.698c0-.526.002-1.32-.528-1.852-.308-.308-.737-.464-1.275-.464zM87.778 21.214c-.186 0-.37.025-.545.074-.138.038-.277.086-.44.144-.08.028-.16.057-.24.08-.648.198-1.3.35-1.996.466-.69.115-1.356.17-2.035.17-1.583 0-2.978-.198-4.144-.593-1.14-.385-2.11-.94-2.88-1.65-.78-.722-1.365-1.568-1.785-2.588-.144-.348-.268-.714-.37-1.09-.295-1.076-.9-1.62-1.794-1.62-.552 0-1.077.245-1.405.66-.234.3-.475.813-.295 1.562.127.526.286 1.043.473 1.534.594 1.556 1.452 2.9 2.553 4 1.103 1.103 2.452 1.958 4.014 2.544 1.543.58 3.283.873 5.175.873.8 0 1.543-.03 2.21-.095.67-.063 1.34-.163 1.993-.297.583-.118 1.162-.276 1.926-.52l.113-.035c.128-.037.243-.07.394-.14.823-.373 1.19-1.43.823-2.353-.277-.695-.946-1.126-1.745-1.126zM91.628 8.05c-.523-1.664-1.226-2.996-2.152-4.072-1-1.163-2.17-2.02-3.578-2.622-1.404-.6-3.01-.905-4.774-.905-1.71 0-3.303.317-4.733.94-1.428.624-2.676 1.515-3.71 2.65-.94 1.032-1.767 2.49-2.395 4.22-.115.316-.226.695-.33 1.127-.128.533-.038 1.043.25 1.435.277.382.707.613 1.22.65l.14.005c.863 0 1.545-.558 1.825-1.493.084-.285.18-.55.286-.812.428-1.063.976-1.973 1.586-2.63.716-.772 1.538-1.367 2.44-1.768.998-.443 2.142-.667 3.4-.667 1.43 0 2.592.205 3.554.628.97.425 1.77.995 2.38 1.695.687.788 1.15 1.907 1.42 2.706.252.752.347 1.506.39 2.368h-10.88c-1.156 0-1.905.708-1.905 1.803 0 1.096.75 1.803 1.907 1.803h12.415c.137-.008.835-.068 1.314-.55.477-.476.556-1.065.57-1.267 0-2.22-.197-3.838-.638-5.243zM19.356 21.214c-.185 0-.368.024-.545.073-.136.04-.27.085-.426.14-.083.03-.168.06-.255.085-.647.197-1.3.35-1.995.465-.69.115-1.356.17-2.034.17-1.582 0-2.977-.2-4.144-.593-1.14-.386-2.11-.94-2.88-1.65-.782-.722-1.366-1.568-1.785-2.588-.14-.345-.265-.713-.368-1.09-.295-1.076-.9-1.62-1.794-1.62-.55 0-1.075.245-1.403.66-.234.3-.475.815-.295 1.562.125.52.284 1.036.473 1.535.595 1.556 1.454 2.902 2.554 4C5.56 23.465 6.91 24.32 8.47 24.907c1.544.58 3.285.873 5.176.873.8 0 1.543-.032 2.21-.096.67-.063 1.34-.163 1.993-.297.588-.12 1.167-.278 1.927-.522l.11-.033c.13-.037.245-.07.394-.14.823-.372 1.192-1.428.824-2.354-.28-.694-.95-1.124-1.748-1.124zM21.055 3.977c-1-1.162-2.17-2.02-3.578-2.622-1.402-.6-3.01-.905-4.775-.905-1.71 0-3.303.316-4.734.94-1.43.625-2.677 1.516-3.71 2.65-.938 1.03-1.767 2.488-2.396 4.22-.112.31-.222.69-.328 1.126-.127.533-.038 1.043.25 1.437.28.382.708.612 1.22.65l.14.004c.876 0 1.542-.544 1.825-1.492.084-.284.18-.55.285-.812.428-1.063.976-1.973 1.586-2.63.717-.772 1.538-1.367 2.442-1.77.997-.442 2.14-.666 3.4-.666 1.428 0 2.59.205 3.554.627.97.425 1.77.995 2.38 1.695.686.786 1.15 1.905 1.42 2.705.253.757.35 1.51.39 2.368H9.545c-1.158 0-1.906.708-1.906 1.803 0 1.096.748 1.803 1.906 1.803H21.95l.012-.002c.135-.007.833-.068 1.312-.548.48-.48.557-1.068.57-1.268 0-2.223-.197-3.84-.637-5.243-.523-1.666-1.227-2.997-2.152-4.073zM49.778 21.51h-8.204c-1.412 0-2.545-.108-3.37-.32-.736-.187-1.293-.466-1.653-.828-.354-.36-.583-.815-.698-1.396-.138-.694-.207-1.54-.207-2.514V2.46c0-1.386-.916-2.005-1.824-2.005s-1.823.62-1.823 2.004v14.396c0 1.382.135 2.6.402 3.62.287 1.103.81 2.035 1.557 2.77.74.728 1.73 1.266 2.94 1.6 1.142.318 2.59.48 4.304.48h8.578c1.188 0 1.955-.75 1.955-1.91s-.768-1.907-1.955-1.907z"/></g></svg>