<?xml version="1.0" encoding="utf-8"?>
<!-- Generator: Adobe Illustrator 17.0.0, SVG Export Plug-In . SVG Version: 6.00 Build 0)  -->
<!DOCTYPE svg PUBLIC "-//W3C//DTD SVG 1.1//EN" "http://www.w3.org/Graphics/SVG/1.1/DTD/svg11.dtd">
<svg version="1.1" id="Layer_1" xmlns="http://www.w3.org/2000/svg" xmlns:xlink="http://www.w3.org/1999/xlink" x="0px" y="0px"
	 width="800px" height="800px" viewBox="0 0 800 800" enable-background="new 0 0 800 800" xml:space="preserve">
<g>
	<rect x="0.167" y="-0.064" width="800" height="800"/>
	<g>
		<g>
			<path fill="#FFFFFF" stroke="#FFFFFF" stroke-width="20" stroke-miterlimit="10" d="M480.313,587.41
				c2.111,5.873-0.938,12.342-6.813,14.453c-5.871,2.107-12.342-0.94-14.451-6.813c-2.107-5.871,0.942-12.342,6.813-14.451
				C471.738,578.488,478.206,581.539,480.313,587.41z"/>
			<path fill="#FFFFFF" stroke="#FFFFFF" stroke-width="20" stroke-miterlimit="10" d="M539.6,548.692
				c3.991,4.797,3.338,11.918-1.457,15.911c-4.799,3.99-11.919,3.338-15.911-1.459c-3.99-4.795-3.338-11.918,1.461-15.909
				C528.487,543.241,535.61,543.896,539.6,548.692z"/>
			<circle fill="#FFFFFF" stroke="#FFFFFF" stroke-width="20" stroke-miterlimit="10" cx="576.381" cy="501.792" r="11.298"/>
			<circle fill="#FFFFFF" stroke="#FFFFFF" stroke-width="20" stroke-miterlimit="10" cx="600.592" cy="435.381" r="11.298"/>
			<circle fill="#FFFFFF" stroke="#FFFFFF" stroke-width="20" stroke-miterlimit="10" cx="600.627" cy="364.695" r="11.298"/>
			<circle fill="#FFFFFF" stroke="#FFFFFF" stroke-width="20" stroke-miterlimit="10" cx="576.485" cy="298.26" r="11.298"/>
			<path fill="#FFFFFF" stroke="#FFFFFF" stroke-width="20" stroke-miterlimit="10" d="M522.454,236.788
				c4.03-4.764,11.156-5.356,15.922-1.325c4.762,4.031,5.358,11.156,1.324,15.92c-4.025,4.761-11.156,5.356-15.922,1.326
				C519.012,248.68,518.421,241.552,522.454,236.788z"/>
			<path fill="#FFFFFF" stroke="#FFFFFF" stroke-width="20" stroke-miterlimit="10" d="M459.278,204.804
				c2.157-5.854,8.65-8.849,14.509-6.691c5.853,2.159,8.85,8.651,6.686,14.508c-2.153,5.852-8.648,8.848-14.505,6.691
				C460.112,217.154,457.119,210.659,459.278,204.804z"/>
			<path fill="#FFFFFF" stroke="#FFFFFF" stroke-width="20" stroke-miterlimit="10" d="M388.975,196.354
				c0.024-6.237,5.101-11.273,11.346-11.249c6.237,0.027,11.275,5.103,11.245,11.345c-0.021,6.235-5.101,11.272-11.344,11.249
				C393.984,207.676,388.949,202.595,388.975,196.354z"/>
			<path fill="#FFFFFF" stroke="#FFFFFF" stroke-width="20" stroke-miterlimit="10" d="M320.021,212.459
				c-2.11-5.87,0.938-12.34,6.814-14.452c5.87-2.108,12.341,0.939,14.448,6.816c2.11,5.867-0.938,12.338-6.811,14.451
				C328.599,221.385,322.131,218.333,320.021,212.459z"/>
			<path fill="#FFFFFF" stroke="#FFFFFF" stroke-width="20" stroke-miterlimit="10" d="M260.733,251.177
				c-3.99-4.793-3.338-11.915,1.461-15.91c4.795-3.99,11.918-3.339,15.907,1.463c3.99,4.791,3.339,11.914-1.457,15.909
				C271.848,256.632,264.725,255.976,260.733,251.177z"/>
			<path fill="#FFFFFF" stroke="#FFFFFF" stroke-width="20" stroke-miterlimit="10" d="M218.265,307.839
				c-5.389-3.14-7.212-10.055-4.069-15.451c3.144-5.389,10.058-7.214,15.449-4.066c5.389,3.137,7.212,10.054,4.072,15.449
				C230.572,309.161,223.656,310.981,218.265,307.839z"/>
			<path fill="#FFFFFF" stroke="#FFFFFF" stroke-width="20" stroke-miterlimit="10" d="M197.736,375.607
				c-6.138-1.107-10.216-6.982-9.108-13.127c1.111-6.139,6.983-10.218,13.127-9.104c6.136,1.105,10.215,6.98,9.109,13.124
				C209.753,372.641,203.877,376.717,197.736,375.607z"/>
			<path fill="#FFFFFF" stroke="#FFFFFF" stroke-width="20" stroke-miterlimit="10" d="M201.623,446.309
				c-6.147,1.06-11.987-3.065-13.048-9.22c-1.057-6.149,3.067-11.991,9.22-13.045c6.144-1.06,11.987,3.066,13.048,9.218
				C211.903,439.413,207.774,445.253,201.623,446.309z"/>
			<path fill="#FFFFFF" stroke="#FFFFFF" stroke-width="20" stroke-miterlimit="10" d="M229.457,511.42
				c-5.411,3.097-12.314,1.219-15.414-4.201c-3.096-5.415-1.219-12.317,4.203-15.412c5.411-3.097,12.312-1.217,15.414,4.199
				C236.758,501.423,234.875,508.323,229.457,511.42z"/>
			<path fill="#FFFFFF" stroke="#FFFFFF" stroke-width="20" stroke-miterlimit="10" d="M277.881,563.084
				c-4.026,4.761-11.154,5.355-15.921,1.324c-4.761-4.032-5.358-11.158-1.322-15.92c4.025-4.761,11.152-5.358,15.92-1.327
				C281.324,551.191,281.913,558.317,277.881,563.084z"/>
			<path fill="#FFFFFF" stroke="#FFFFFF" stroke-width="20" stroke-miterlimit="10" d="M341.057,595.069
				c-2.156,5.853-8.649,8.848-14.509,6.689c-5.854-2.159-8.851-8.653-6.686-14.509c2.154-5.85,8.648-8.85,14.505-6.693
				C340.224,582.716,343.216,589.212,341.057,595.069z"/>
			<path fill="#FFFFFF" stroke="#FFFFFF" stroke-width="20" stroke-miterlimit="10" d="M411.361,603.518
				c-0.024,6.238-5.102,11.273-11.345,11.249c-6.239-0.029-11.276-5.103-11.246-11.346c0.024-6.236,5.1-11.273,11.342-11.249
				C406.353,592.195,411.386,597.277,411.361,603.518z"/>
		</g>
	</g>
	<circle fill="#FFFFFF" stroke="#FFFFFF" stroke-miterlimit="10" cx="400" cy="715.307" r="19"/>
</g>
</svg>
