<?xml version="1.0" encoding="utf-8"?>
<!-- Generator: Adobe Illustrator 17.0.0, SVG Export Plug-In . SVG Version: 6.00 Build 0)  -->
<!DOCTYPE svg PUBLIC "-//W3C//DTD SVG 1.1//EN" "http://www.w3.org/Graphics/SVG/1.1/DTD/svg11.dtd">
<svg version="1.1" id="Layer_1" xmlns="http://www.w3.org/2000/svg" xmlns:xlink="http://www.w3.org/1999/xlink" x="0px" y="0px"
	 width="160px" height="160px" viewBox="0 0 160 160" enable-background="new 0 0 160 160" xml:space="preserve">
<g display="none">
	<circle display="inline" fill="#FFFFFF" stroke="#FFFFFF" stroke-miterlimit="10" cx="79.667" cy="395.263" r="19"/>
	<g display="inline">
		<path fill="#FFFFFF" d="M169.275,264.03c3.99,11.1-1.773,23.326-12.877,27.316c-11.096,3.982-23.326-1.777-27.312-12.877
			c-3.982-11.096,1.78-23.326,12.877-27.312C153.068,247.167,165.293,252.934,169.275,264.03z"/>
		<path fill="#FFFFFF" d="M226.829,222.281c7.543,9.066,6.309,22.525-2.754,30.072c-9.07,7.541-22.527,6.309-30.072-2.757
			c-7.541-9.063-6.309-22.525,2.761-30.068C205.825,211.978,219.288,213.216,226.829,222.281z"/>
		<circle fill="#FFFFFF" cx="255.881" cy="181.812" r="21.353"/>
		<circle fill="#FFFFFF" cx="280.092" cy="115.401" r="21.353"/>
		<circle fill="#FFFFFF" cx="280.127" cy="44.715" r="21.353"/>
		<circle fill="#FFFFFF" cx="255.985" cy="-21.72" r="21.353"/>
		<path fill="#FFFFFF" d="M194.28-89.687c7.617-9.004,21.085-10.123,30.093-2.504c9,7.619,10.127,21.085,2.502,30.089
			c-7.607,8.998-21.085,10.123-30.093,2.506C187.775-67.211,186.658-80.683,194.28-89.687z"/>
		<path fill="#FFFFFF" d="M129.346-118.655c4.077-11.064,16.349-16.725,27.422-12.646c11.062,4.081,16.727,16.35,12.637,27.42
			c-4.069,11.06-16.345,16.723-27.414,12.646C130.922-95.313,125.265-107.589,129.346-118.655z"/>
		<path fill="#FFFFFF" d="M58.422-123.669c0.045-11.788,9.641-21.306,21.444-21.261c11.788,0.051,21.31,9.645,21.253,21.442
			c-0.04,11.784-9.641,21.304-21.44,21.261C67.889-102.27,58.373-111.873,58.422-123.669z"/>
		<path fill="#FFFFFF" d="M-9.94-104.123c-3.988-11.094,1.773-23.323,12.878-27.314c11.094-3.984,23.324,1.775,27.307,12.882
			c3.988,11.089-1.773,23.319-12.873,27.312C6.272-87.253-5.952-93.021-9.94-104.123z"/>
		<path fill="#FFFFFF" d="M-67.496-62.374c-7.541-9.059-6.309-22.519,2.761-30.07c9.063-7.541,22.525-6.311,30.064,2.765
			c7.541,9.055,6.311,22.517-2.754,30.068C-46.488-52.064-59.951-53.304-67.496-62.374z"/>
		<path fill="#FFFFFF" d="M-107.299-3.455c-10.185-5.935-13.631-19.004-7.69-29.202c5.942-10.185,19.01-13.634,29.199-7.685
			c10.185,5.929,13.631,19.002,7.696,29.199C-84.039-0.956-97.11,2.483-107.299-3.455z"/>
		<path fill="#FFFFFF" d="M-124.552,65.52c-11.601-2.092-19.308-13.196-17.214-24.81c2.1-11.603,13.198-19.312,24.81-17.207
			c11.597,2.088,19.306,13.192,17.216,24.804C-101.84,59.914-112.946,67.618-124.552,65.52z"/>
		<path fill="#FFFFFF" d="M-117.173,136.237c-11.618,2.003-22.655-5.793-24.661-17.426c-1.998-11.622,5.797-22.663,17.426-24.655
			c11.612-2.003,22.655,5.795,24.661,17.422C-97.744,123.203-105.548,134.241-117.173,136.237z"/>
		<path fill="#FFFFFF" d="M-86.054,200.167c-10.227,5.853-23.273,2.304-29.132-7.94c-5.851-10.234-2.304-23.279,7.944-29.129
			c10.227-5.853,23.27-2.3,29.132,7.936C-72.255,181.273-75.814,194.314-86.054,200.167z"/>
		<path fill="#FFFFFF" d="M-34.945,249.6c-7.609,8.998-21.081,10.121-30.091,2.502c-8.998-7.62-10.127-21.089-2.499-30.089
			c7.607-8.998,21.077-10.127,30.089-2.508C-28.438,227.122-27.325,240.59-34.945,249.6z"/>
		<path fill="#FFFFFF" d="M29.99,278.57c-4.075,11.062-16.347,16.723-27.422,12.642c-11.064-4.081-16.728-16.354-12.637-27.422
			c4.071-11.056,16.345-16.726,27.414-12.65C28.416,255.223,34.071,267.5,29.99,278.57z"/>
		<path fill="#FFFFFF" d="M100.914,283.581c-0.045,11.79-9.643,21.306-21.442,21.261c-11.792-0.055-21.312-9.645-21.255-21.444
			c0.045-11.786,9.639-21.306,21.436-21.261C91.449,262.18,100.962,271.785,100.914,283.581z"/>
	</g>
</g>
<g>
	<g>
		<circle fill="#FFFFFF" stroke="#FFFFFF" stroke-miterlimit="10" cx="79.967" cy="143.074" r="3.8"/>
		<g>
			<path fill="#FFFFFF" d="M97.888,116.828c0.798,2.22-0.355,4.665-2.575,5.463c-2.219,0.796-4.665-0.355-5.462-2.575
				c-0.796-2.219,0.356-4.665,2.575-5.462C94.647,113.455,97.092,114.608,97.888,116.828z"/>
			<path fill="#FFFFFF" d="M109.399,108.478c1.509,1.813,1.262,4.505-0.551,6.014c-1.814,1.508-4.505,1.262-6.014-0.551
				c-1.508-1.813-1.262-4.505,0.552-6.014C105.198,106.417,107.891,106.665,109.399,108.478z"/>
			<circle fill="#FFFFFF" cx="115.209" cy="100.384" r="4.271"/>
			<circle fill="#FFFFFF" cx="120.052" cy="87.102" r="4.271"/>
			<circle fill="#FFFFFF" cx="120.059" cy="72.965" r="4.271"/>
			<circle fill="#FFFFFF" cx="115.23" cy="59.678" r="4.271"/>
			<path fill="#FFFFFF" d="M102.889,46.084c1.523-1.801,4.217-2.025,6.019-0.501c1.8,1.524,2.025,4.217,0.5,6.018
				c-1.521,1.8-4.217,2.025-6.019,0.501C101.588,50.579,101.365,47.885,102.889,46.084z"/>
			<path fill="#FFFFFF" d="M89.902,40.291c0.815-2.213,3.27-3.345,5.484-2.529c2.212,0.816,3.345,3.27,2.527,5.484
				c-0.814,2.212-3.269,3.345-5.483,2.529C90.218,44.959,89.086,42.504,89.902,40.291z"/>
			<path fill="#FFFFFF" d="M75.718,39.288c0.009-2.358,1.928-4.261,4.289-4.252c2.358,0.01,4.262,1.929,4.251,4.288
				c-0.008,2.357-1.928,4.261-4.288,4.252C77.611,43.568,75.708,41.647,75.718,39.288z"/>
			<path fill="#FFFFFF" d="M62.045,43.197c-0.798-2.219,0.355-4.665,2.576-5.463c2.219-0.797,4.665,0.355,5.461,2.576
				c0.798,2.218-0.355,4.664-2.575,5.462C65.288,46.571,62.843,45.417,62.045,43.197z"/>
			<path fill="#FFFFFF" d="M50.534,51.547c-1.508-1.812-1.262-4.504,0.552-6.014c1.813-1.508,4.505-1.262,6.013,0.553
				c1.508,1.811,1.262,4.503-0.551,6.014C54.736,53.609,52.043,53.361,50.534,51.547z"/>
			<path fill="#FFFFFF" d="M42.573,63.331c-2.037-1.187-2.726-3.801-1.538-5.84c1.188-2.037,3.802-2.727,5.84-1.537
				c2.037,1.186,2.726,3.8,1.539,5.84C47.225,63.83,44.611,64.518,42.573,63.331z"/>
			<path fill="#FFFFFF" d="M39.123,77.126c-2.32-0.418-3.862-2.639-3.443-4.962c0.42-2.321,2.64-3.862,4.962-3.441
				c2.319,0.418,3.861,2.638,3.443,4.961C43.665,76.004,41.444,77.545,39.123,77.126z"/>
			<path fill="#FFFFFF" d="M40.599,91.269c-2.324,0.401-4.531-1.159-4.932-3.485c-0.4-2.324,1.159-4.533,3.485-4.931
				c2.322-0.401,4.531,1.159,4.932,3.484C44.484,88.662,42.924,90.87,40.599,91.269z"/>
			<path fill="#FFFFFF" d="M46.822,104.055c-2.045,1.171-4.655,0.461-5.826-1.588c-1.17-2.047-0.461-4.656,1.589-5.826
				c2.045-1.171,4.654-0.46,5.826,1.587C49.582,100.276,48.87,102.884,46.822,104.055z"/>
			<path fill="#FFFFFF" d="M57.044,113.942c-1.522,1.8-4.216,2.024-6.018,0.5c-1.8-1.524-2.025-4.218-0.5-6.018
				c1.521-1.8,4.215-2.025,6.018-0.502C58.346,109.446,58.568,112.14,57.044,113.942z"/>
			<path fill="#FFFFFF" d="M70.031,119.736c-0.815,2.212-3.269,3.345-5.484,2.528c-2.213-0.816-3.346-3.271-2.527-5.484
				c0.814-2.211,3.269-3.345,5.483-2.53C69.716,115.066,70.847,117.522,70.031,119.736z"/>
			<path fill="#FFFFFF" d="M84.216,120.738c-0.009,2.358-1.929,4.261-4.288,4.252c-2.358-0.011-4.262-1.929-4.251-4.289
				c0.009-2.357,1.928-4.261,4.287-4.252C82.323,116.458,84.226,118.379,84.216,120.738z"/>
		</g>
	</g>
</g>
</svg>
