<svg xmlns="http://www.w3.org/2000/svg" width="101.001" height="27.5" viewBox="0 0 101.001 27.5"><g fill="#FFF"><path d="M63.403 0C61.88 0 61.88 1.313 61.88 2.098V24.86c0 .785 0 2.098 1.523 2.098s1.523-1.312 1.523-2.097V2.1c0-.785 0-2.098-1.523-2.098zM96.465 23.377c-.164 0-.323.02-.476.064-.145.04-.29.09-.434.143-.105.037-.212.075-.32.108-.752.23-1.505.405-2.303.538-.805.133-1.58.198-2.365.198-1.83 0-3.448-.233-4.81-.693-1.348-.455-2.495-1.114-3.41-1.96-.932-.858-1.628-1.865-2.128-3.08-.164-.398-.31-.83-.434-1.28-.17-.624-.516-1.452-1.53-1.452-.47 0-.91.207-1.182.55-.195.25-.395.68-.24 1.328.14.573.31 1.13.513 1.66.64 1.68 1.567 3.132 2.752 4.315 1.185 1.185 2.64 2.107 4.325 2.74 1.673.628 3.568.947 5.632.947.878 0 1.696-.035 2.433-.105.74-.07 1.476-.18 2.183-.326.644-.132 1.278-.304 2.12-.575l.13-.04c.12-.034.23-.066.373-.13.684-.31.982-1.208.665-2-.233-.584-.806-.948-1.495-.948zM100.308 8.254c-.565-1.802-1.323-3.24-2.316-4.394-1.07-1.245-2.324-2.164-3.833-2.81-1.513-.646-3.25-.975-5.162-.975-1.85 0-3.57.34-5.112 1.014-1.54.67-2.883 1.63-3.994 2.85-1.01 1.11-1.905 2.688-2.588 4.568-.123.34-.242.748-.354 1.21-.108.453-.038.88.198 1.202.225.308.575.494.986.524l.136.005c.748 0 1.32-.482 1.57-1.32.1-.333.212-.644.336-.954.502-1.248 1.15-2.322 1.877-3.105.85-.916 1.828-1.623 2.903-2.1 1.182-.525 2.534-.792 4.017-.792 1.674 0 3.044.244 4.19.747 1.155.506 2.113 1.19 2.846 2.03.825.95 1.374 2.268 1.69 3.208.337 1.006.444 2.008.48 3.316H85.457c-1.026 0-1.64.568-1.64 1.522s.614 1.523 1.64 1.523h13.906c.073-.004.725-.047 1.146-.47.428-.427.486-.966.493-1.07 0-2.438-.213-4.207-.692-5.73zM19.685 23.377c-.164 0-.323.02-.475.063-.145.04-.288.09-.434.142-.105.037-.212.075-.322.108-.75.23-1.503.404-2.3.537-.806.133-1.58.198-2.366.198-1.83 0-3.448-.233-4.81-.693-1.348-.455-2.495-1.114-3.41-1.96-.933-.858-1.63-1.866-2.128-3.08-.164-.398-.31-.83-.434-1.28-.17-.624-.516-1.452-1.53-1.452-.47 0-.91.206-1.18.55-.196.25-.396.68-.24 1.328.138.574.31 1.132.512 1.66.64 1.68 1.567 3.13 2.752 4.314 1.186 1.185 2.64 2.107 4.326 2.74 1.673.628 3.568.947 5.632.947.878 0 1.696-.036 2.433-.106.742-.07 1.477-.18 2.184-.326.644-.13 1.278-.303 2.12-.574l.13-.04c.122-.034.232-.066.373-.13.684-.31.982-1.207.666-2-.235-.583-.81-.947-1.498-.947zM21.213 3.86c-1.07-1.244-2.324-2.163-3.833-2.81-1.512-.646-3.25-.974-5.16-.974-1.852 0-3.57.34-5.113 1.014-1.54.672-2.883 1.63-3.993 2.85-1.01 1.11-1.906 2.69-2.59 4.57-.122.34-.24.746-.352 1.21-.108.452-.038.88.198 1.202.225.308.575.494.986.524l.136.005c.757 0 1.315-.467 1.57-1.317.1-.334.212-.645.336-.955.502-1.248 1.15-2.322 1.877-3.105.85-.917 1.828-1.624 2.903-2.102 1.182-.523 2.534-.79 4.017-.79 1.674 0 3.044.244 4.19.746 1.156.507 2.113 1.19 2.847 2.03.826.95 1.375 2.268 1.69 3.207.338 1.008.446 2.01.482 3.316H8.677c-1.026 0-1.64.568-1.64 1.522s.614 1.523 1.64 1.523h13.907c.073-.004.725-.047 1.146-.47.427-.427.485-.966.492-1.07 0-2.44-.213-4.21-.692-5.733-.566-1.8-1.324-3.237-2.317-4.392zM53.824 23.708h-9.207c-1.626 0-2.94-.125-3.904-.372-.916-.233-1.618-.59-2.088-1.064-.47-.474-.77-1.07-.92-1.82-.16-.807-.24-1.79-.24-2.92V1.83c0-1.29-.8-1.75-1.548-1.75S34.37.54 34.37 1.83v16.156c0 1.507.146 2.83.435 3.936.3 1.15.844 2.12 1.615 2.88.768.754 1.805 1.317 3.08 1.67 1.24.343 2.82.518 4.698.518h9.625c1.06 0 1.694-.613 1.694-1.64s-.632-1.642-1.693-1.642z"/></g></svg>